<svg width="218" height="218" viewBox="0 0 218 218" fill="none" xmlns="http://www.w3.org/2000/svg">
    <rect width="218" height="218" rx="33" fill="#1A1A1A" />
    <path d="M62.0497 90.5453V74.2324H56V69H73.7215V74.2324H67.7023V90.5453H62.0497Z" fill="white" />
    <path
        d="M81.2056 90.9146C79.5557 90.9146 78.0891 90.5761 76.8058 89.8989C75.5225 89.2218 74.5142 88.2779 73.7809 87.0673C73.068 85.8566 72.7115 84.451 72.7115 82.8505C72.7115 81.25 73.068 79.8445 73.7809 78.6338C74.4939 77.4232 75.4818 76.4793 76.7447 75.8022C78.0076 75.125 79.464 74.7864 81.114 74.7864C82.6824 74.7864 84.0574 75.1353 85.2388 75.8329C86.4406 76.5101 87.3776 77.5463 88.0498 78.9416C88.7423 80.3369 89.0886 82.1016 89.0886 84.2356H77.6613L78.3335 83.4353C78.3335 84.092 78.4354 84.6665 78.6391 85.159C78.8428 85.6514 79.1483 86.031 79.5557 86.2978C79.9631 86.5645 80.4621 86.6979 81.0528 86.6979C81.725 86.6979 82.3056 86.544 82.7944 86.2362C83.3037 85.9079 83.6194 85.5078 83.7416 85.0358L88.5692 86.544C88.2026 87.611 87.6118 88.4728 86.7971 89.1294C86.0026 89.7655 85.1064 90.2272 84.1083 90.5145C83.1305 90.7813 82.163 90.9146 81.2056 90.9146ZM78.3641 81.7425L77.7835 80.8499H84.1083L83.5583 81.7425C83.5583 80.9422 83.4259 80.3164 83.1611 79.865C82.8963 79.4136 82.5602 79.0955 82.1528 78.9108C81.7658 78.7056 81.3686 78.603 80.9612 78.603C80.5334 78.603 80.1159 78.7056 79.7085 78.9108C79.3214 79.0955 78.9955 79.4136 78.7307 79.865C78.4863 80.3164 78.3641 80.9422 78.3641 81.7425Z"
        fill="white" />
    <path
        d="M90.7815 90.5453V75.1558H95.9758L96.1896 77.0333C96.6785 76.2946 97.2794 75.7406 97.9923 75.3712C98.7053 74.9814 99.4895 74.7864 100.345 74.7864C101.608 74.7864 102.647 75.0429 103.462 75.5559C104.276 76.0484 104.877 76.8179 105.264 77.8643C105.753 76.8589 106.395 76.0997 107.189 75.5867C108.004 75.0532 108.91 74.7864 109.909 74.7864C111.783 74.7864 113.168 75.3507 114.064 76.4793C114.96 77.6079 115.408 79.3623 115.408 81.7425V90.5453H109.909V82.6659C109.909 82.0708 109.837 81.5886 109.695 81.2193C109.572 80.8294 109.379 80.5319 109.114 80.3267C108.87 80.1215 108.554 80.0086 108.167 79.9881C107.393 79.9471 106.812 80.1215 106.425 80.5113C106.038 80.9012 105.845 81.5168 105.845 82.3581V90.5453H100.345V82.6659C100.345 82.0708 100.274 81.5886 100.131 81.2193C100.009 80.8294 99.8154 80.5319 99.5506 80.3267C99.3062 80.1215 98.9904 80.0086 98.6034 79.9881C97.8294 79.9471 97.2489 80.1215 96.8618 80.5113C96.4748 80.9012 96.2813 81.5168 96.2813 82.3581V90.5453H90.7815Z"
        fill="white" />
    <path
        d="M126.916 90.5453L126.763 87.0057V83.0044C126.763 82.2863 126.722 81.6399 126.641 81.0654C126.559 80.4908 126.356 80.0394 126.03 79.7111C125.704 79.3828 125.174 79.2186 124.441 79.2186C123.932 79.2186 123.514 79.3417 123.188 79.588C122.862 79.8342 122.587 80.1215 122.363 80.4498L117.566 78.9108C117.994 78.0695 118.524 77.3411 119.155 76.7255C119.807 76.1099 120.561 75.638 121.416 75.3097C122.292 74.9609 123.259 74.7864 124.319 74.7864C125.948 74.7864 127.344 75.084 128.505 75.679C129.666 76.2741 130.552 77.1051 131.163 78.1721C131.774 79.2391 132.079 80.4806 132.079 81.8964V90.5453H126.916ZM122.852 90.9146C121.08 90.9146 119.695 90.5145 118.697 89.7143C117.719 88.8935 117.23 87.7239 117.23 86.2054C117.23 84.6049 117.719 83.4251 118.697 82.6659C119.695 81.8861 121.08 81.4963 122.852 81.4963H127.344V84.6665H125.021C124.308 84.6665 123.759 84.7896 123.371 85.0358C122.984 85.2821 122.791 85.6309 122.791 86.0823C122.791 86.3901 122.923 86.6261 123.188 86.7902C123.453 86.9544 123.82 87.0365 124.288 87.0365C124.797 87.0365 125.235 86.9441 125.602 86.7595C125.969 86.5543 126.254 86.2773 126.457 85.9284C126.661 85.5591 126.763 85.1384 126.763 84.6665H128.199C128.199 86.6569 127.731 88.1958 126.794 89.2833C125.857 90.3709 124.543 90.9146 122.852 90.9146Z"
        fill="white" />
    <path
        d="M134.673 90.5453V75.1558H139.868L140.173 77.9875V90.5453H134.673ZM144.237 90.5453V82.6659H149.737V90.5453H144.237ZM144.237 82.6659C144.237 82.0708 144.166 81.5886 144.023 81.2193C143.901 80.8294 143.707 80.5319 143.443 80.3267C143.198 80.1215 142.882 80.0086 142.495 79.9881C141.721 79.9471 141.141 80.1215 140.754 80.5113C140.367 80.9012 140.173 81.5168 140.173 82.3581H138.676C138.676 80.7371 138.921 79.3623 139.409 78.2337C139.898 77.1051 140.56 76.2536 141.395 75.679C142.231 75.084 143.178 74.7864 144.237 74.7864C145.48 74.7864 146.508 75.0429 147.323 75.5559C148.138 76.0484 148.739 76.8076 149.126 77.8336C149.533 78.8595 149.737 80.1625 149.737 81.7425V82.6659H144.237Z"
        fill="white" />
    <path
        d="M67.1829 120.411C65.0441 120.411 63.1497 119.939 61.4998 118.995C59.8702 118.031 58.5869 116.718 57.6499 115.056C56.7129 113.373 56.2444 111.444 56.2444 109.269C56.2444 107.094 56.7129 105.176 57.6499 103.513C58.5869 101.831 59.8702 100.518 61.4998 99.5738C63.1497 98.6094 65.0441 98.1272 67.1829 98.1272C68.8328 98.1272 70.3198 98.4144 71.6438 98.989C72.9678 99.5635 74.1085 100.364 75.0659 101.39C76.0232 102.416 76.7565 103.606 77.2658 104.96L71.8882 106.684C71.6031 106.007 71.2364 105.422 70.7883 104.929C70.3401 104.416 69.8105 104.026 69.1995 103.76C68.6087 103.493 67.9365 103.36 67.1829 103.36C66.1848 103.36 65.2987 103.616 64.5246 104.129C63.7506 104.622 63.1395 105.309 62.6914 106.191C62.2636 107.074 62.0497 108.1 62.0497 109.269C62.0497 110.418 62.2738 111.444 62.7219 112.347C63.1701 113.229 63.7812 113.927 64.5552 114.44C65.3496 114.932 66.2561 115.179 67.2745 115.179C68.0689 115.179 68.7513 115.045 69.3217 114.779C69.9124 114.491 70.4114 114.101 70.8188 113.609C71.2466 113.096 71.6132 112.501 71.9188 111.824L77.2963 113.547C76.8075 114.902 76.0844 116.102 75.127 117.149C74.1696 118.175 73.0187 118.975 71.6744 119.549C70.33 120.124 68.8328 120.411 67.1829 120.411Z"
        fill="white" />
    <path
        d="M88.8311 120.042L88.5255 117.21V104.652H94.0253V120.042H88.8311ZM78.962 112.532V104.652H84.4618V112.532H78.962ZM84.4618 112.532C84.4618 113.106 84.5229 113.588 84.6451 113.978C84.7877 114.368 84.9812 114.666 85.2257 114.871C85.4905 115.076 85.8164 115.189 86.2034 115.209C86.9774 115.23 87.558 115.045 87.945 114.655C88.332 114.266 88.5255 113.66 88.5255 112.84H90.0227C90.0227 114.461 89.7782 115.835 89.2894 116.964C88.8005 118.092 88.1385 118.954 87.3033 119.549C86.4682 120.124 85.521 120.411 84.4618 120.411C83.2193 120.411 82.1906 120.165 81.3758 119.672C80.561 119.159 79.9499 118.39 79.5426 117.364C79.1555 116.338 78.962 115.035 78.962 113.455V112.532H84.4618Z"
        fill="white" />
    <path
        d="M100.995 112.193C100.995 110.531 101.321 109.136 101.973 108.007C102.645 106.879 103.491 106.027 104.509 105.453C105.528 104.878 106.587 104.591 107.687 104.591V110.008C106.73 110.008 105.833 110.1 104.998 110.285C104.183 110.449 103.521 110.706 103.012 111.054C102.523 111.403 102.279 111.824 102.279 112.316L100.995 112.193ZM96.779 120.042V104.652H102.279V120.042H96.779Z"
        fill="white" />
    <path
        d="M109.581 120.042V98.4965H115.081V120.042H109.581ZM119.145 120.042V112.162H124.644V120.042H119.145ZM119.145 112.162C119.145 111.567 119.073 111.085 118.931 110.716C118.808 110.326 118.615 110.028 118.35 109.823C118.106 109.618 117.79 109.505 117.403 109.485C116.629 109.444 116.048 109.618 115.661 110.008C115.274 110.398 115.081 111.013 115.081 111.855H113.584C113.584 110.234 113.828 108.859 114.317 107.73C114.806 106.602 115.468 105.75 116.303 105.176C117.138 104.58 118.085 104.283 119.145 104.283C120.387 104.283 121.416 104.539 122.23 105.052C123.045 105.545 123.646 106.304 124.033 107.33C124.441 108.356 124.644 109.659 124.644 111.239V112.162H119.145Z"
        fill="white" />
    <path
        d="M136.166 120.042L136.013 116.502V112.501C136.013 111.783 135.972 111.136 135.891 110.562C135.809 109.987 135.605 109.536 135.28 109.208C134.954 108.879 134.424 108.715 133.691 108.715C133.181 108.715 132.764 108.838 132.438 109.084C132.112 109.331 131.837 109.618 131.613 109.946L126.816 108.407C127.244 107.566 127.773 106.838 128.405 106.222C129.057 105.606 129.81 105.135 130.666 104.806C131.542 104.457 132.509 104.283 133.569 104.283C135.198 104.283 136.593 104.58 137.754 105.176C138.916 105.771 139.802 106.602 140.413 107.669C141.024 108.736 141.329 109.977 141.329 111.393V120.042H136.166ZM132.102 120.411C130.33 120.411 128.945 120.011 127.947 119.211C126.969 118.39 126.48 117.22 126.48 115.702C126.48 114.101 126.969 112.922 127.947 112.162C128.945 111.383 130.33 110.993 132.102 110.993H136.593V114.163H134.271C133.558 114.163 133.008 114.286 132.621 114.532C132.234 114.779 132.041 115.127 132.041 115.579C132.041 115.887 132.173 116.123 132.438 116.287C132.703 116.451 133.069 116.533 133.538 116.533C134.047 116.533 134.485 116.441 134.852 116.256C135.218 116.051 135.504 115.774 135.707 115.425C135.911 115.056 136.013 114.635 136.013 114.163H137.449C137.449 116.153 136.98 117.692 136.043 118.78C135.106 119.867 133.793 120.411 132.102 120.411Z"
        fill="white" />
    <path
        d="M150.737 120.411C148.843 120.411 147.437 119.96 146.52 119.057C145.604 118.154 145.145 116.861 145.145 115.179V99.8508H150.645V113.671C150.645 114.245 150.727 114.655 150.89 114.902C151.053 115.148 151.328 115.271 151.715 115.271C151.878 115.271 152.081 115.22 152.326 115.117C152.57 115.015 152.764 114.912 152.906 114.809L154.77 118.811C154.302 119.221 153.691 119.59 152.937 119.919C152.183 120.247 151.45 120.411 150.737 120.411ZM142.854 109.269V104.652H153.792V109.269H142.854Z"
        fill="white" />
    <path
        d="M57.3138 149.538V127.993H66.1746C67.7838 127.993 69.2096 128.311 70.4522 128.947C71.6947 129.563 72.6623 130.425 73.3548 131.533C74.0678 132.62 74.4242 133.882 74.4242 135.318C74.4242 136.755 74.0678 138.037 73.3548 139.166C72.6623 140.274 71.6947 141.146 70.4522 141.782C69.2096 142.398 67.7838 142.705 66.1746 142.705H62.9664V149.538H57.3138ZM68.8022 149.538L64.0358 141.074L68.2828 137.873L75.2798 149.538H68.8022ZM62.9664 137.473H65.869C66.3783 137.473 66.8264 137.381 67.2134 137.196C67.6004 137.011 67.906 136.755 68.1301 136.426C68.3541 136.098 68.4662 135.729 68.4662 135.318C68.4662 134.703 68.2217 134.2 67.7328 133.81C67.2643 133.4 66.6431 133.195 65.869 133.195H62.9664V137.473Z"
        fill="white" />
    <path
        d="M84.6931 149.908C83.0635 149.908 81.6173 149.569 80.3544 148.892C79.1119 148.194 78.1341 147.24 77.4212 146.03C76.7083 144.819 76.3518 143.424 76.3518 141.844C76.3518 140.264 76.6981 138.868 77.3906 137.658C78.1036 136.447 79.0813 135.503 80.3238 134.826C81.5868 134.128 83.0228 133.779 84.632 133.779C86.2616 133.779 87.6976 134.128 88.9402 134.826C90.2031 135.503 91.1808 136.447 91.8734 137.658C92.5863 138.868 92.9428 140.264 92.9428 141.844C92.9428 143.424 92.5863 144.819 91.8734 146.03C91.1808 147.24 90.2132 148.194 88.9707 148.892C87.7282 149.569 86.3023 149.908 84.6931 149.908ZM84.6931 144.798C85.2023 144.798 85.6505 144.675 86.0375 144.429C86.4245 144.162 86.7301 143.813 86.9541 143.383C87.1782 142.931 87.2902 142.418 87.2902 141.844C87.2902 141.269 87.1782 140.766 86.9541 140.335C86.7301 139.884 86.4143 139.535 86.0069 139.289C85.6199 139.022 85.1616 138.889 84.632 138.889C84.1228 138.889 83.6644 139.022 83.2571 139.289C82.87 139.535 82.5645 139.884 82.3404 140.335C82.1164 140.766 82.0043 141.269 82.0043 141.844C82.0043 142.418 82.1164 142.931 82.3404 143.383C82.5645 143.813 82.8802 144.162 83.2876 144.429C83.695 144.675 84.1635 144.798 84.6931 144.798Z"
        fill="white" />
    <path
        d="M94.9901 149.538V127.993H100.49V149.538H94.9901ZM104.554 149.538V141.659H110.053V149.538H104.554ZM104.554 141.659C104.554 141.064 104.482 140.582 104.34 140.212C104.218 139.822 104.024 139.525 103.759 139.32C103.515 139.115 103.199 139.002 102.812 138.981C102.038 138.94 101.457 139.115 101.07 139.504C100.683 139.894 100.49 140.51 100.49 141.351H98.9928C98.9928 139.73 99.2372 138.355 99.7261 137.227C100.215 136.098 100.877 135.247 101.712 134.672C102.547 134.077 103.494 133.779 104.554 133.779C105.796 133.779 106.825 134.036 107.64 134.549C108.454 135.041 109.055 135.801 109.442 136.827C109.85 137.853 110.053 139.156 110.053 140.736V141.659H104.554Z"
        fill="white" />
    <path
        d="M121.575 149.538L121.422 145.999V141.997C121.422 141.279 121.381 140.633 121.3 140.058C121.218 139.484 121.015 139.032 120.689 138.704C120.363 138.376 119.833 138.212 119.1 138.212C118.591 138.212 118.173 138.335 117.847 138.581C117.521 138.827 117.246 139.115 117.022 139.443L112.225 137.904C112.653 137.063 113.183 136.334 113.814 135.719C114.466 135.103 115.219 134.631 116.075 134.303C116.951 133.954 117.918 133.779 118.978 133.779C120.607 133.779 122.003 134.077 123.164 134.672C124.325 135.267 125.211 136.098 125.822 137.165C126.433 138.232 126.738 139.474 126.738 140.889V149.538H121.575ZM117.511 149.908C115.739 149.908 114.354 149.508 113.356 148.707C112.378 147.887 111.889 146.717 111.889 145.198C111.889 143.598 112.378 142.418 113.356 141.659C114.354 140.879 115.739 140.489 117.511 140.489H122.003V143.66H119.68C118.967 143.66 118.417 143.783 118.03 144.029C117.643 144.275 117.45 144.624 117.45 145.075C117.45 145.383 117.582 145.619 117.847 145.783C118.112 145.947 118.479 146.03 118.947 146.03C119.456 146.03 119.894 145.937 120.261 145.753C120.628 145.547 120.913 145.27 121.116 144.921C121.32 144.552 121.422 144.131 121.422 143.66H122.858C122.858 145.65 122.39 147.189 121.453 148.276C120.516 149.364 119.202 149.908 117.511 149.908Z"
        fill="white" />
    <path
        d="M129.332 149.538V134.149H134.527L134.832 136.98V149.538H129.332ZM138.896 149.538V141.659H144.396V149.538H138.896ZM138.896 141.659C138.896 141.064 138.825 140.582 138.682 140.212C138.56 139.822 138.366 139.525 138.102 139.32C137.857 139.115 137.541 139.002 137.154 138.981C136.38 138.94 135.8 139.115 135.413 139.504C135.026 139.894 134.832 140.51 134.832 141.351H133.335C133.335 139.73 133.579 138.355 134.068 137.227C134.557 136.098 135.219 135.247 136.054 134.672C136.89 134.077 137.837 133.779 138.896 133.779C140.138 133.779 141.167 134.036 141.982 134.549C142.797 135.041 143.398 135.801 143.785 136.827C144.192 137.853 144.396 139.156 144.396 140.736V141.659H138.896Z"
        fill="white" />
    <path
        d="M147.302 149.538V134.149H152.802V149.538H147.302ZM150.052 132.671C149.237 132.671 148.524 132.364 147.913 131.748C147.302 131.132 146.997 130.414 146.997 129.594C146.997 128.752 147.302 128.034 147.913 127.439C148.524 126.823 149.237 126.516 150.052 126.516C150.887 126.516 151.6 126.823 152.191 127.439C152.802 128.034 153.108 128.752 153.108 129.594C153.108 130.414 152.802 131.132 152.191 131.748C151.6 132.364 150.887 132.671 150.052 132.671Z"
        fill="white" />
    <path
        d="M158.853 150C157.997 150 157.254 149.692 156.622 149.077C156.011 148.441 155.706 147.692 155.706 146.83C155.706 145.968 156.011 145.229 156.622 144.614C157.254 143.978 157.997 143.66 158.853 143.66C159.708 143.66 160.442 143.978 161.053 144.614C161.684 145.229 162 145.968 162 146.83C162 147.692 161.684 148.441 161.053 149.077C160.442 149.692 159.708 150 158.853 150Z"
        fill="white" />
</svg>
    