<svg width="112" height="36" viewBox="0 0 112 36" fill="none" xmlns="http://www.w3.org/2000/svg">
    <g clip-path="url(#clip0_6_717)">
    <mask id="mask0_6_717" style="mask-type:luminance" maskUnits="userSpaceOnUse" x="21" y="3" width="21" height="22">
    <path d="M39.2784 5.09988C37.6652 3.77516 35.4038 3.11353 32.4912 3.11353C30.8011 3.11353 29.1687 3.30089 27.5955 3.67269C26.0223 4.04596 24.378 4.6183 22.6613 5.38971L24.5719 10.0197C25.6908 9.47953 26.8022 9.06821 27.9078 8.7857C29.0133 8.50319 30.0064 8.3612 30.8914 8.3612C32.1908 8.3612 33.1854 8.632 33.875 9.17067C34.5632 9.71081 34.908 10.4822 34.908 11.4849V11.7162H29.4085C26.8081 11.7425 24.8117 12.3076 23.422 13.4127C22.0308 14.5194 21.3352 16.0622 21.3352 18.0427C21.3352 19.9983 21.979 21.5733 23.2666 22.7678C24.5527 23.9637 26.3153 24.5624 28.5516 24.5624C31.3857 24.5624 33.505 23.6739 34.9095 21.8998L41.7352 10.674C41.71 8.28216 40.8901 6.42461 39.2784 5.09988ZM34.9095 17.1952C34.7009 17.9929 34.208 18.6414 33.4266 19.1434C32.6466 19.6441 31.7365 19.8958 30.696 19.8958C29.811 19.8958 29.1154 19.6836 28.6093 19.2591C28.1016 18.8346 27.8486 18.2623 27.8486 17.5421C27.8486 16.1017 28.8239 15.3815 30.7745 15.3815H34.9095V17.1952Z" fill="white"/>
    </mask>
    <g mask="url(#mask0_6_717)">
    <path d="M112.986 -1.23828H-1.36011V36.9197H112.986V-1.23828Z" fill="url(#paint0_linear_6_717)"/>
    </g>
    <mask id="mask1_6_717" style="mask-type:luminance" maskUnits="userSpaceOnUse" x="79" y="3" width="8" height="22">
    <path d="M86.6243 3.38281H79.7202V24.2535H86.6243V3.38281Z" fill="white"/>
    </mask>
    <g mask="url(#mask1_6_717)">
    <path d="M112.986 -1.2384H-1.36011V36.9196H112.986V-1.2384Z" fill="url(#paint1_linear_6_717)"/>
    </g>
    <mask id="mask2_6_717" style="mask-type:luminance" maskUnits="userSpaceOnUse" x="90" y="3" width="22" height="22">
    <path d="M109.913 5.27261C108.522 3.83224 106.669 3.11206 104.355 3.11206C102.82 3.11206 101.461 3.42092 100.279 4.03717C99.0947 4.65489 98.1268 5.56829 97.3735 6.77592V3.38286H90.4294V24.255H97.3735V13.221C97.5037 12.0382 97.9388 11.0853 98.6803 10.3666C99.4203 9.6464 100.363 9.27314 101.507 9.24825C102.599 9.24825 103.471 9.58932 104.121 10.27C104.77 10.9521 105.096 11.8845 105.096 13.0673V24.255H112V11.0985C112 8.65542 111.304 6.71444 109.913 5.27261Z" fill="white"/>
    </mask>
    <g mask="url(#mask2_6_717)">
    <path d="M112.986 -1.23828H-1.36011V36.9197H112.986V-1.23828Z" fill="url(#paint2_linear_6_717)"/>
    </g>
    <mask id="mask3_6_717" style="mask-type:luminance" maskUnits="userSpaceOnUse" x="21" y="30" width="5" height="6">
    <path d="M21.4004 31.6295H22.7501V35.1617H23.9385V31.6295H25.3016V30.6605H21.4004V31.6295Z" fill="white"/>
    </mask>
    <g mask="url(#mask3_6_717)">
    <path d="M112.986 -1.23828H-1.36011V36.9197H112.986V-1.23828Z" fill="url(#paint3_linear_6_717)"/>
    </g>
    <mask id="mask4_6_717" style="mask-type:luminance" maskUnits="userSpaceOnUse" x="28" y="30" width="5" height="6">
    <path d="M29.8273 33.3773L31.9955 33.37V32.439H29.8273V31.5988H32.2308V30.6605H28.6389V35.1617H32.2945V34.2248H29.8273V33.3773Z" fill="white"/>
    </mask>
    <g mask="url(#mask4_6_717)">
    <path d="M112.986 -1.23828H-1.36011V36.9197H112.986V-1.23828Z" fill="url(#paint4_linear_6_717)"/>
    </g>
    <mask id="mask5_6_717" style="mask-type:luminance" maskUnits="userSpaceOnUse" x="35" y="30" width="5" height="6">
    <path d="M38.6243 34.0506C38.4216 34.1457 38.2262 34.1926 38.0397 34.1926C37.8104 34.1926 37.6017 34.1355 37.4137 34.0228C37.2258 33.9101 37.0778 33.7535 36.9697 33.5544C36.8617 33.3553 36.8069 33.1343 36.8069 32.8898C36.8069 32.6454 36.8602 32.4243 36.9697 32.2253C37.0778 32.0262 37.2258 31.871 37.4137 31.7568C37.6017 31.6441 37.8104 31.587 38.0397 31.587C38.2395 31.587 38.4408 31.6412 38.6436 31.751C38.8463 31.8608 39.0225 32.0072 39.169 32.1901L39.8572 31.3689C39.6278 31.1289 39.348 30.9401 39.0195 30.801C38.6895 30.6619 38.3579 30.5917 38.019 30.5917C37.5602 30.5917 37.1458 30.6927 36.7759 30.8932C36.4059 31.0952 36.1143 31.3704 35.9027 31.7217C35.691 32.073 35.5845 32.4668 35.5845 32.903C35.5845 33.3436 35.6881 33.7417 35.8967 34.0974C36.1054 34.4531 36.3896 34.7327 36.7537 34.9391C37.1177 35.1441 37.5247 35.248 37.9746 35.248C38.3076 35.248 38.6451 35.1719 38.984 35.0196C39.3229 34.8674 39.6174 34.6625 39.8631 34.4063L39.169 33.6671C39.0106 33.8281 38.8286 33.9569 38.6243 34.0506Z" fill="white"/>
    </mask>
    <g mask="url(#mask5_6_717)">
    <path d="M112.986 -1.2384H-1.36011V36.9196H112.986V-1.2384Z" fill="url(#paint5_linear_6_717)"/>
    </g>
    <mask id="mask6_6_717" style="mask-type:luminance" maskUnits="userSpaceOnUse" x="43" y="30" width="5" height="6">
    <path d="M46.2536 32.4976H44.4155V30.6605H43.2285V35.1617H44.4155V33.4344H46.2536V35.1617H47.442V30.6605H46.2536V32.4976Z" fill="white"/>
    </mask>
    <g mask="url(#mask6_6_717)">
    <path d="M112.986 -1.23828H-1.36011V36.9197H112.986V-1.23828Z" fill="url(#paint6_linear_6_717)"/>
    </g>
    <mask id="mask7_6_717" style="mask-type:luminance" maskUnits="userSpaceOnUse" x="51" y="30" width="5" height="6">
    <path d="M54.2972 33.37L52.2268 30.6605H51.1804V35.1617H52.2919V32.4712L54.3564 35.1617H55.3954V30.6605H54.2913L54.2972 33.37Z" fill="white"/>
    </mask>
    <g mask="url(#mask7_6_717)">
    <path d="M112.986 -1.23828H-1.36011V36.9197H112.986V-1.23828Z" fill="url(#paint7_linear_6_717)"/>
    </g>
    <mask id="mask8_6_717" style="mask-type:luminance" maskUnits="userSpaceOnUse" x="58" y="30" width="6" height="6">
    <path d="M62.5658 30.8917C62.1914 30.6912 61.7726 30.5902 61.3093 30.5902C60.8461 30.5902 60.4273 30.6912 60.0528 30.8917C59.6784 31.0938 59.3839 31.3689 59.1708 31.7203C58.9562 32.0716 58.8496 32.4653 58.8496 32.9015C58.8496 33.3421 58.9576 33.7417 59.1708 34.0989C59.3854 34.4561 59.6784 34.7371 60.0528 34.9406C60.4273 35.1441 60.8461 35.2451 61.3093 35.2451C61.7726 35.2451 62.1914 35.1426 62.5658 34.9362C62.9403 34.7313 63.2348 34.4502 63.4494 34.0945C63.664 33.7388 63.7705 33.3407 63.7705 32.9001C63.7705 32.4639 63.6625 32.0701 63.4494 31.7188C63.2348 31.3689 62.9403 31.0938 62.5658 30.8917ZM62.3867 33.5851C62.2787 33.7886 62.1307 33.9496 61.9428 34.0667C61.7548 34.1853 61.5476 34.2438 61.3226 34.2438C61.0977 34.2438 60.889 34.1853 60.6996 34.0667C60.5087 33.9496 60.3562 33.7886 60.2423 33.5851C60.1283 33.3817 60.0706 33.1562 60.0706 32.9074C60.0706 32.6629 60.1268 32.439 60.2393 32.2355C60.3518 32.032 60.5042 31.8725 60.6966 31.7568C60.889 31.6412 61.0977 31.5841 61.3226 31.5841C61.5476 31.5841 61.7548 31.6412 61.9428 31.7568C62.1307 31.8725 62.2787 32.032 62.3867 32.2355C62.4948 32.439 62.5495 32.6629 62.5495 32.9074C62.5495 33.1562 62.4963 33.3817 62.3867 33.5851Z" fill="white"/>
    </mask>
    <g mask="url(#mask8_6_717)">
    <path d="M112.986 -1.2384H-1.36011V36.9196H112.986V-1.2384Z" fill="url(#paint8_linear_6_717)"/>
    </g>
    <mask id="mask9_6_717" style="mask-type:luminance" maskUnits="userSpaceOnUse" x="67" y="30" width="4" height="6">
    <path d="M68.4059 30.6605H67.219V35.1617H70.3343V34.1604H68.4059V30.6605Z" fill="white"/>
    </mask>
    <g mask="url(#mask9_6_717)">
    <path d="M112.986 -1.23828H-1.36011V36.9197H112.986V-1.23828Z" fill="url(#paint9_linear_6_717)"/>
    </g>
    <mask id="mask10_6_717" style="mask-type:luminance" maskUnits="userSpaceOnUse" x="73" y="30" width="6" height="6">
    <path d="M77.1554 30.8917C76.781 30.6912 76.3622 30.5902 75.8989 30.5902C75.4357 30.5902 75.0169 30.6912 74.6424 30.8917C74.268 31.0938 73.9735 31.3689 73.7604 31.7203C73.5458 32.0716 73.4392 32.4653 73.4392 32.9015C73.4392 33.3421 73.5472 33.7417 73.7604 34.0989C73.975 34.4561 74.268 34.7371 74.6424 34.9406C75.0169 35.1441 75.4357 35.2451 75.8989 35.2451C76.3622 35.2451 76.781 35.1426 77.1554 34.9362C77.5299 34.7313 77.8244 34.4502 78.039 34.0945C78.2536 33.7388 78.3601 33.3407 78.3601 32.9001C78.3601 32.4639 78.2521 32.0701 78.039 31.7188C77.8244 31.3689 77.5299 31.0938 77.1554 30.8917ZM76.9763 33.5851C76.8683 33.7886 76.7203 33.9496 76.5324 34.0667C76.3444 34.1853 76.1372 34.2438 75.9122 34.2438C75.6873 34.2438 75.4786 34.1853 75.2892 34.0667C75.0983 33.9496 74.9458 33.7886 74.8319 33.5851C74.7179 33.3817 74.6602 33.1562 74.6602 32.9074C74.6602 32.6629 74.7164 32.439 74.8289 32.2355C74.9414 32.032 75.0938 31.8725 75.2862 31.7568C75.4786 31.6412 75.6873 31.5841 75.9122 31.5841C76.1372 31.5841 76.3444 31.6412 76.5324 31.7568C76.7203 31.8725 76.8683 32.032 76.9763 32.2355C77.0844 32.439 77.1391 32.6629 77.1391 32.9074C77.1391 33.1562 77.0844 33.3817 76.9763 33.5851Z" fill="white"/>
    </mask>
    <g mask="url(#mask10_6_717)">
    <path d="M112.986 -1.2384H-1.36011V36.9196H112.986V-1.2384Z" fill="url(#paint10_linear_6_717)"/>
    </g>
    <mask id="mask11_6_717" style="mask-type:luminance" maskUnits="userSpaceOnUse" x="81" y="30" width="5" height="6">
    <path d="M83.287 31.7583C83.4824 31.6427 83.6999 31.5856 83.9426 31.5856C84.1498 31.5856 84.3615 31.631 84.5746 31.7203C84.7892 31.811 84.9786 31.9325 85.1429 32.0862L85.8177 31.265C85.5839 31.0601 85.2983 30.8961 84.9608 30.7732C84.6234 30.6517 84.286 30.5902 83.9485 30.5902C83.4764 30.5902 83.0487 30.6912 82.6654 30.8917C82.2821 31.0938 81.9817 31.3704 81.7626 31.7232C81.5436 32.076 81.4355 32.4712 81.4355 32.9074C81.4355 33.348 81.5406 33.7461 81.7537 34.1018C81.9654 34.4575 82.2569 34.7371 82.6269 34.9406C82.9969 35.1441 83.4113 35.2451 83.8701 35.2451C84.1853 35.2451 84.5198 35.1909 84.8735 35.0811C85.2258 34.9713 85.5232 34.8293 85.766 34.6537V32.862H84.7403V34.0243C84.4458 34.1706 84.1839 34.2424 83.9545 34.2424C83.7117 34.2424 83.4912 34.1838 83.2929 34.0696C83.0931 33.954 82.9377 33.7944 82.8252 33.591C82.7128 33.3875 82.6565 33.1592 82.6565 32.9074C82.6565 32.6585 82.7128 32.4346 82.8252 32.2326C82.9392 32.032 83.0931 31.874 83.287 31.7583Z" fill="white"/>
    </mask>
    <g mask="url(#mask11_6_717)">
    <path d="M112.986 -1.2384H-1.36011V36.9196H112.986V-1.2384Z" fill="url(#paint11_linear_6_717)"/>
    </g>
    <mask id="mask12_6_717" style="mask-type:luminance" maskUnits="userSpaceOnUse" x="88" y="30" width="6" height="6">
    <path d="M91.2019 32.5927L90.1245 30.6605H88.936L90.6114 33.755V35.1617H91.7998V33.7242L93.4426 30.6605H92.2541L91.2019 32.5927Z" fill="white"/>
    </mask>
    <g mask="url(#mask12_6_717)">
    <path d="M112.986 -1.23828H-1.36011V36.9197H112.986V-1.23828Z" fill="url(#paint12_linear_6_717)"/>
    </g>
    <mask id="mask13_6_717" style="mask-type:luminance" maskUnits="userSpaceOnUse" x="43" y="0" width="35" height="25">
    <path d="M77.8142 3.41209C66.1683 3.41209 55.7774 9.61415 49.7583 14.1241V6.28257H53.846V0H43.4062V24.3281H47.6375L48.8348 23.1366C48.968 23.0049 62.5778 9.69612 77.8142 9.69612V3.41209Z" fill="white"/>
    </mask>
    <g mask="url(#mask13_6_717)">
    <path d="M112.986 -1.2384H-1.36011V36.9196H112.986V-1.2384Z" fill="url(#paint13_linear_6_717)"/>
    </g>
    <mask id="mask14_6_717" style="mask-type:luminance" maskUnits="userSpaceOnUse" x="0" y="3" width="19" height="22">
    <path d="M7.95782 8.18552C8.3219 7.96741 8.80289 7.85763 9.4008 7.85763C11.1427 7.85763 13.379 8.56464 16.1095 9.98012L18.4494 5.50532C17.1218 4.70756 15.7114 4.10302 14.2166 3.69169C12.7219 3.28037 11.2078 3.07397 9.67311 3.07397C7.1246 3.07397 5.04375 3.67266 3.43206 4.86858C1.81889 6.06449 1.01378 7.71711 1.01378 9.82496C1.01378 11.1892 1.37046 12.2944 2.08676 13.1419C2.80159 13.9909 3.64074 14.6276 4.60272 15.0521C5.5647 15.4766 6.78716 15.9085 8.26862 16.3447C9.51771 16.6799 10.4338 16.9887 11.0184 17.2712C11.6045 17.5552 11.896 17.9534 11.896 18.4672C11.896 18.8785 11.6948 19.1947 11.2907 19.4128C10.8867 19.6309 10.348 19.7407 9.67163 19.7407C8.50097 19.7407 7.25927 19.5152 5.94654 19.0658C4.6338 18.6165 3.37878 17.9797 2.18296 17.1556L0 21.5923C1.27426 22.5701 2.73055 23.3094 4.36888 23.81C6.00722 24.3121 7.72399 24.5624 9.51771 24.5624C12.1698 24.5624 14.3217 23.9637 15.9734 22.7678C17.625 21.5718 18.4508 19.9192 18.4508 17.8114C18.4508 16.4222 18.0853 15.2981 17.3586 14.4359C16.6305 13.5752 15.7647 12.9311 14.7642 12.5066C13.7638 12.0821 12.5087 11.6518 11.0006 11.2141C9.75303 10.8803 8.84137 10.5715 8.2701 10.289C7.69735 10.0065 7.41171 9.6332 7.41171 9.16918C7.41171 8.73297 7.59227 8.40509 7.95782 8.18552Z" fill="white"/>
    </mask>
    <g mask="url(#mask14_6_717)">
    <path d="M112.986 -1.23828H-1.36011V36.9197H112.986V-1.23828Z" fill="url(#paint14_linear_6_717)"/>
    </g>
    </g>
    <defs>
    <linearGradient id="paint0_linear_6_717" x1="-7.62912" y1="80.5882" x2="131.712" y2="-60.2939" gradientUnits="userSpaceOnUse">
    <stop stop-color="#C6972C"/>
    <stop offset="0.9968" stop-color="#F8DE90"/>
    </linearGradient>
    <linearGradient id="paint1_linear_6_717" x1="-7.62912" y1="80.5881" x2="131.712" y2="-60.294" gradientUnits="userSpaceOnUse">
    <stop stop-color="#C6972C"/>
    <stop offset="0.9968" stop-color="#F8DE90"/>
    </linearGradient>
    <linearGradient id="paint2_linear_6_717" x1="-7.62912" y1="80.5882" x2="131.712" y2="-60.2939" gradientUnits="userSpaceOnUse">
    <stop stop-color="#C6972C"/>
    <stop offset="0.9968" stop-color="#F8DE90"/>
    </linearGradient>
    <linearGradient id="paint3_linear_6_717" x1="-7.62912" y1="80.5882" x2="131.712" y2="-60.2939" gradientUnits="userSpaceOnUse">
    <stop stop-color="#C6972C"/>
    <stop offset="0.9968" stop-color="#F8DE90"/>
    </linearGradient>
    <linearGradient id="paint4_linear_6_717" x1="-7.62912" y1="80.5882" x2="131.712" y2="-60.2939" gradientUnits="userSpaceOnUse">
    <stop stop-color="#C6972C"/>
    <stop offset="0.9968" stop-color="#F8DE90"/>
    </linearGradient>
    <linearGradient id="paint5_linear_6_717" x1="-7.62912" y1="80.5881" x2="131.712" y2="-60.294" gradientUnits="userSpaceOnUse">
    <stop stop-color="#C6972C"/>
    <stop offset="0.9968" stop-color="#F8DE90"/>
    </linearGradient>
    <linearGradient id="paint6_linear_6_717" x1="-7.62912" y1="80.5882" x2="131.712" y2="-60.2939" gradientUnits="userSpaceOnUse">
    <stop stop-color="#C6972C"/>
    <stop offset="0.9968" stop-color="#F8DE90"/>
    </linearGradient>
    <linearGradient id="paint7_linear_6_717" x1="-7.62912" y1="80.5882" x2="131.712" y2="-60.2939" gradientUnits="userSpaceOnUse">
    <stop stop-color="#C6972C"/>
    <stop offset="0.9968" stop-color="#F8DE90"/>
    </linearGradient>
    <linearGradient id="paint8_linear_6_717" x1="-7.62912" y1="80.5881" x2="131.712" y2="-60.294" gradientUnits="userSpaceOnUse">
    <stop stop-color="#C6972C"/>
    <stop offset="0.9968" stop-color="#F8DE90"/>
    </linearGradient>
    <linearGradient id="paint9_linear_6_717" x1="-7.62912" y1="80.5882" x2="131.712" y2="-60.2939" gradientUnits="userSpaceOnUse">
    <stop stop-color="#C6972C"/>
    <stop offset="0.9968" stop-color="#F8DE90"/>
    </linearGradient>
    <linearGradient id="paint10_linear_6_717" x1="-7.62912" y1="80.5881" x2="131.712" y2="-60.294" gradientUnits="userSpaceOnUse">
    <stop stop-color="#C6972C"/>
    <stop offset="0.9968" stop-color="#F8DE90"/>
    </linearGradient>
    <linearGradient id="paint11_linear_6_717" x1="-7.62912" y1="80.5881" x2="131.712" y2="-60.294" gradientUnits="userSpaceOnUse">
    <stop stop-color="#C6972C"/>
    <stop offset="0.9968" stop-color="#F8DE90"/>
    </linearGradient>
    <linearGradient id="paint12_linear_6_717" x1="-7.62912" y1="80.5882" x2="131.712" y2="-60.2939" gradientUnits="userSpaceOnUse">
    <stop stop-color="#C6972C"/>
    <stop offset="0.9968" stop-color="#F8DE90"/>
    </linearGradient>
    <linearGradient id="paint13_linear_6_717" x1="-7.62912" y1="80.5881" x2="131.712" y2="-60.294" gradientUnits="userSpaceOnUse">
    <stop stop-color="#C6972C"/>
    <stop offset="0.9968" stop-color="#F8DE90"/>
    </linearGradient>
    <linearGradient id="paint14_linear_6_717" x1="-7.62912" y1="80.5882" x2="131.712" y2="-60.2939" gradientUnits="userSpaceOnUse">
    <stop stop-color="#C6972C"/>
    <stop offset="0.9968" stop-color="#F8DE90"/>
    </linearGradient>
    <clipPath id="clip0_6_717">
    <rect width="112" height="35.3153" fill="white"/>
    </clipPath>
    </defs>
    </svg>
    